<?xml version="1.0" standalone="no"?>
<!DOCTYPE svg PUBLIC "-//W3C//DTD SVG 20010904//EN"
 "http://www.w3.org/TR/2001/REC-SVG-20010904/DTD/svg10.dtd">
<svg version="1.0" xmlns="http://www.w3.org/2000/svg"
 width="148.000000pt" height="148.000000pt" viewBox="0 0 148.000000 148.000000"
 preserveAspectRatio="xMidYMid meet">

<g transform="translate(0.000000,148.000000) scale(0.100000,-0.100000)"
fill="#000000" stroke="none">
<path d="M633 1465 c-234 -53 -395 -292 -355 -527 34 -199 182 -350 380 -389
93 -18 192 -3 305 46 18 7 19 2 15 -97 -3 -96 -6 -109 -33 -154 -19 -30 -49
-60 -79 -79 -43 -26 -59 -30 -121 -30 -62 0 -78 4 -121 30 -65 41 -103 103
-112 186 l-7 64 -108 3 c-128 3 -126 5 -109 -110 46 -316 370 -494 655 -361
129 61 231 193 257 332 6 31 10 270 10 572 l0 519 -115 0 -115 0 0 -26 c0 -21
-3 -25 -17 -19 -114 50 -228 64 -330 40z m246 -191 c96 -51 151 -137 158 -244
15 -215 -199 -375 -400 -300 -235 88 -264 407 -48 537 62 37 83 42 172 39 50
-2 78 -10 118 -32z"/>
</g>
</svg>
